<?xml version="1.0" encoding="utf-8"?>
<!-- Generator: Adobe Illustrator 25.0.0, SVG Export Plug-In . SVG Version: 6.00 Build 0)  -->
<svg version="1.1" id="Layer_1" xmlns="http://www.w3.org/2000/svg" xmlns:xlink="http://www.w3.org/1999/xlink" x="0px" y="0px"
	 viewBox="0 0 48 48" style="enable-background:new 0 0 48 48;" xml:space="preserve">
<style type="text/css">
	.st0{fill-rule:evenodd;clip-rule:evenodd;fill:#1E272E;}
	.st1{fill:#1E272E;}
</style>
<path class="st0" d="M24,0C10.75,0,0,10.75,0,24s10.75,24,24,24s24-10.75,24-24S37.25,0,24,0z M18.72,11.28
	c1.37-0.06,1.8-0.08,5.28-0.08h0c3.48,0,3.91,0.02,5.28,0.08c1.36,0.06,2.29,0.28,3.11,0.59c0.84,0.33,1.55,0.76,2.27,1.48
	c0.71,0.71,1.15,1.43,1.48,2.27c0.31,0.81,0.53,1.74,0.59,3.11c0.06,1.37,0.08,1.8,0.08,5.28s-0.02,3.91-0.08,5.28
	c-0.06,1.36-0.28,2.29-0.59,3.11c-0.33,0.84-0.77,1.56-1.48,2.27c-0.71,0.71-1.42,1.15-2.27,1.48c-0.81,0.32-1.75,0.53-3.11,0.59
	c-1.37,0.06-1.8,0.08-5.28,0.08c-3.48,0-3.91-0.02-5.28-0.08c-1.36-0.06-2.29-0.28-3.11-0.59c-0.84-0.33-1.56-0.77-2.27-1.48
	c-0.71-0.71-1.15-1.43-1.48-2.27c-0.32-0.81-0.53-1.74-0.59-3.11c-0.06-1.37-0.08-1.8-0.08-5.28s0.02-3.91,0.08-5.28
	c0.06-1.36,0.28-2.29,0.59-3.11c0.33-0.84,0.77-1.56,1.48-2.27c0.71-0.71,1.43-1.15,2.27-1.48C16.43,11.56,17.36,11.34,18.72,11.28z
	"/>
<path class="st0" d="M22.85,13.51c0.22,0,0.46,0,0.72,0l0.43,0c3.42,0,3.82,0.01,5.17,0.07c1.25,0.06,1.93,0.27,2.38,0.44
	c0.6,0.23,1.02,0.51,1.47,0.96c0.45,0.45,0.73,0.87,0.96,1.47c0.18,0.45,0.38,1.13,0.44,2.38c0.06,1.35,0.07,1.75,0.07,5.17
	c0,3.42-0.01,3.82-0.07,5.17c-0.06,1.25-0.27,1.93-0.44,2.38c-0.23,0.6-0.51,1.02-0.96,1.47c-0.45,0.45-0.87,0.73-1.47,0.96
	c-0.45,0.18-1.13,0.38-2.38,0.44c-1.35,0.06-1.75,0.07-5.17,0.07c-3.42,0-3.82-0.01-5.17-0.07c-1.25-0.06-1.93-0.27-2.38-0.44
	c-0.6-0.23-1.02-0.51-1.47-0.96c-0.45-0.45-0.73-0.87-0.96-1.47c-0.18-0.45-0.38-1.13-0.44-2.38c-0.06-1.35-0.07-1.75-0.07-5.17
	c0-3.42,0.01-3.82,0.07-5.17c0.06-1.25,0.27-1.93,0.44-2.38c0.23-0.6,0.51-1.02,0.96-1.47s0.87-0.73,1.47-0.96
	c0.45-0.18,1.13-0.38,2.38-0.44C20.01,13.52,20.47,13.51,22.85,13.51L22.85,13.51z M30.83,15.63c-0.85,0-1.54,0.69-1.54,1.54
	c0,0.85,0.69,1.54,1.54,1.54s1.54-0.69,1.54-1.54C32.37,16.32,31.68,15.63,30.83,15.63L30.83,15.63z M17.43,24
	c0-3.63,2.94-6.57,6.57-6.57c3.63,0,6.57,2.94,6.57,6.57s-2.94,6.57-6.57,6.57C20.37,30.57,17.43,27.63,17.43,24z"/>
<path class="st1" d="M24,19.73c2.36,0,4.27,1.91,4.27,4.27c0,2.36-1.91,4.27-4.27,4.27c-2.36,0-4.27-1.91-4.27-4.27
	C19.73,21.64,21.64,19.73,24,19.73z"/>
</svg>
