<?xml version="1.0" encoding="utf-8"?>
<!-- Generator: Adobe Illustrator 25.0.0, SVG Export Plug-In . SVG Version: 6.00 Build 0)  -->
<svg version="1.1" id="Layer_1" xmlns="http://www.w3.org/2000/svg" xmlns:xlink="http://www.w3.org/1999/xlink" x="0px" y="0px"
	 viewBox="0 0 48 48" style="enable-background:new 0 0 48 48;" xml:space="preserve">
<style type="text/css">
	.st0{fill-rule:evenodd;clip-rule:evenodd;fill:#1E272E;}
</style>
<path class="st0" d="M24,0C10.75,0,0,10.75,0,24s10.75,24,24,24s24-10.75,24-24S37.25,0,24,0z M11.52,19.88h5.44v16.34h-5.44V19.88z
	 M17.32,14.82c-0.04-1.6-1.18-2.82-3.04-2.82c-1.86,0-3.08,1.22-3.08,2.82c0,1.57,1.18,2.82,3.01,2.82h0.03
	C16.14,17.65,17.32,16.39,17.32,14.82z M30.31,19.49c3.58,0,6.26,2.34,6.26,7.36l0,9.37h-5.44v-8.74c0-2.2-0.79-3.69-2.76-3.69
	c-1.5,0-2.4,1.01-2.79,1.99c-0.14,0.35-0.18,0.84-0.18,1.33v9.13h-5.44c0,0,0.07-14.81,0-16.34h5.44v2.31
	C26.13,21.08,27.43,19.49,30.31,19.49z"/>
</svg>
