<?xml version="1.0" encoding="utf-8"?>
<!-- Generator: Adobe Illustrator 25.0.0, SVG Export Plug-In . SVG Version: 6.00 Build 0)  -->
<svg version="1.1" id="Layer_1" xmlns="http://www.w3.org/2000/svg" xmlns:xlink="http://www.w3.org/1999/xlink" x="0px" y="0px"
	 viewBox="0 0 20 20" style="enable-background:new 0 0 20 20;" xml:space="preserve">
<style type="text/css">
	.st0{fill:#1E272E;}
</style>
<g>
	<g>
		<path class="st0" d="M9,18c-4.96,0-9-4.04-9-9c0-4.96,4.04-9,9-9c4.96,0,9,4.04,9,9C18,13.96,13.96,18,9,18z M9,2
			C5.14,2,2,5.14,2,9c0,3.86,3.14,7,7,7c3.86,0,7-3.14,7-7C16,5.14,12.86,2,9,2z"/>
	</g>
	<g>
		<path class="st0" d="M19,20c-0.26,0-0.51-0.1-0.71-0.29l-4.35-4.35c-0.39-0.39-0.39-1.02,0-1.41s1.02-0.39,1.41,0l4.35,4.35
			c0.39,0.39,0.39,1.02,0,1.41C19.51,19.9,19.26,20,19,20z"/>
	</g>
</g>
</svg>
